HIERARCHY
ROOT Hips
{
	OFFSET -3.958830 18.904000 13.208200
	CHANNELS 6 Xposition Yposition Zposition Zrotation Yrotation Xrotation 
	JOINT LHipJoint
	{
		OFFSET 0.000000 0.000000 0.000000
		CHANNELS 3 Zrotation Yrotation Xrotation
		JOINT LeftUpLeg
		{
			OFFSET 1.800000 -1.400000 0.085000
			CHANNELS 3 Zrotation Yrotation Xrotation
			JOINT LeftLeg
			{
				OFFSET 2.215000 -6.000000 0.000000
				CHANNELS 3 Zrotation Yrotation Xrotation
				JOINT LeftFoot
				{
					OFFSET 2.500000 -6.900000 0.000000
					CHANNELS 3 Zrotation Yrotation Xrotation
					JOINT LeftToeBase
					{
						OFFSET 0.200000 -0.500000 1.950000
						CHANNELS 3 Zrotation Yrotation Xrotation
						End Site
						{
							OFFSET 0.000000 0.000000 0.000000
						}
					}
				}
			}
		}
	}
	JOINT RHipJoint
	{
		OFFSET 0.000000 0.000000 0.000000
		CHANNELS 3 Zrotation Yrotation Xrotation
		JOINT RightUpLeg
		{
			OFFSET -1.800000 -1.400000 0.085000
			CHANNELS 3 Zrotation Yrotation Xrotation
			JOINT RightLeg
			{
				OFFSET -2.215000 -6.000000 0.000000
				CHANNELS 3 Zrotation Yrotation Xrotation
				JOINT RightFoot
				{
					OFFSET -2.500000 -6.900000 0.000000
					CHANNELS 3 Zrotation Yrotation Xrotation
					JOINT RightToeBase
					{
						OFFSET -0.200000 -0.500000 1.950000
						CHANNELS 3 Zrotation Yrotation Xrotation
						End Site
						{
							OFFSET 0.000000 0.000000 0.000000
						}
					}
				}
			}
		}
	}
	JOINT LowerBack
	{
		OFFSET 0.000000 0.000000 0.000000
		CHANNELS 3 Zrotation Yrotation Xrotation
		JOINT Spine
		{
			OFFSET -0.087000 1.940000 -0.288900
			CHANNELS 3 Zrotation Yrotation Xrotation
			JOINT Spine1
			{
				OFFSET 0.000000 1.950000 0.060000
				CHANNELS 3 Zrotation Yrotation Xrotation
				JOINT Neck
				{
					OFFSET 0.000000 0.000000 0.000000
					CHANNELS 3 Zrotation Yrotation Xrotation
					JOINT Neck1
					{
						OFFSET 0.000000 1.600000 0.340000
						CHANNELS 3 Zrotation Yrotation Xrotation
						JOINT Head
						{
							OFFSET 0.000000 1.667000 -0.240000
							CHANNELS 3 Zrotation Yrotation Xrotation
							End Site
							{
								OFFSET 0.000000 0.000000 0.000000
							}
						}
					}
				}
				JOINT LeftShoulder
				{
					OFFSET 0.000000 0.000000 0.000000
					CHANNELS 3 Zrotation Yrotation Xrotation
					JOINT LeftArm
					{
						OFFSET 2.700000 1.550000 -0.730000
						CHANNELS 3 Zrotation Yrotation Xrotation
						JOINT LeftForeArm
						{
							OFFSET 5.450000 0.000000 0.000000
							CHANNELS 3 Zrotation Yrotation Xrotation
							JOINT LeftHand
							{
								OFFSET 3.450000 0.000000 0.000000
								CHANNELS 3 Zrotation Yrotation Xrotation
								JOINT LeftHandIndex1
								{
									OFFSET 0.750000 0.000000 0.000000
									CHANNELS 3 Zrotation Yrotation Xrotation
									End Site
									{
										OFFSET 0.000000 0.000000 0.000000
									}
								}
							}
						}
					}
				}
				JOINT RightShoulder
				{
					OFFSET 0.000000 0.000000 0.000000
					CHANNELS 3 Zrotation Yrotation Xrotation
					JOINT RightArm
					{
						OFFSET -2.700000 1.550000 -0.730000
						CHANNELS 3 Zrotation Yrotation Xrotation
						JOINT RightForeArm
						{
							OFFSET -5.450000 0.000000 0.000000
							CHANNELS 3 Zrotation Yrotation Xrotation
							JOINT RightHand
							{
								OFFSET -3.450000 0.000000 0.000000
								CHANNELS 3 Zrotation Yrotation Xrotation
								JOINT RightHandIndex1
								{
									OFFSET -0.750000 0.000000 0.000000
									CHANNELS 3 Zrotation Yrotation Xrotation
									End Site
									{
										OFFSET 0.000000 0.000000 0.000000
									}
								}
							}
						}
					}
				}
			}
		}
	}
}
MOTION
Frames: 8
Frame Time: 0.016667
-10.361160 16.926440 -0.940260 -10.352020 6.763347 -4.928416 -15.062557 13.300865 3.772227 22.744340 -0.585126 -13.536693 -1.476790 3.628267 -2.926034 -0.198245 4.637448 3.082006 -0.056330 -0.181180 -0.095390 18.220929 -10.829665 1.718453 -17.948228 -0.161927 -8.802169 8.177175 -9.197626 25.334751 -0.388276 -5.323690 2.433594 -0.099550 0.585160 0.282540 -3.795375 -2.877520 -7.745966 21.046211 -1.203841 15.790372 -1.263790 0.640945 15.136610 1.703958 -4.602593 -16.416059 -13.679830 10.587847 37.677036 -2.139970 9.469120 -1.150510 -1.081076 -22.077224 5.569725 -12.568561 -22.561335 0.979305 -15.290297 -38.934727 5.476263 -3.773055 3.063251 0.324930 0.320620 -0.079360 0.141230 -2.050749 23.080758 14.781132 18.462858 0.981061 -0.787824 -6.756399 1.459047 -0.003889 2.611117 -1.107443 -0.247680 0.254670 0.217580 0.015600 
-10.176880 16.996380 -0.941970 -10.872701 8.032525 -5.436612 -15.068697 13.261033 3.704677 22.050168 -0.696871 -13.164955 -1.878598 3.602685 -3.048605 -0.217091 4.630004 3.090493 -0.068830 -0.207150 -0.092680 18.229046 -10.725930 1.824004 -19.854647 0.139209 -11.032380 10.939522 -11.971796 31.526606 -0.547903 -6.387685 2.013920 -0.106380 0.584150 0.289040 -3.817238 -2.941451 -7.801635 21.813064 -1.698408 16.483152 -0.625179 0.156996 14.794808 1.229459 -4.283130 -16.139842 -12.846847 9.892414 37.374565 -2.547650 9.326490 -1.178600 0.184536 -21.996196 5.179248 -9.062956 -22.144564 0.239481 -15.410781 -41.613905 6.143507 -3.762992 3.137988 0.323770 0.329050 -0.093340 0.123270 -2.433490 22.569061 14.628538 18.951354 0.871462 -0.984655 -7.413945 1.345092 -0.006818 2.607168 -1.127949 -0.254450 0.243050 0.235270 0.001300 
-9.999070 17.057240 -0.947760 -11.624180 9.970316 -5.546190 -15.094486 13.063891 3.628191 21.643023 -0.892564 -13.317988 -2.531285 3.553966 -3.453588 -0.227225 4.651895 3.088520 -0.088130 -0.236740 -0.091990 18.265973 -10.388490 2.123575 -22.081154 0.438542 -13.842093 15.179265 -16.386802 38.317485 -0.863993 -7.958252 1.449697 -0.117790 0.596950 0.309680 -3.841928 -3.078173 -7.941637 22.759267 -2.431748 16.822525 0.093829 -0.587658 13.990728 0.821016 -4.020348 -15.565728 -12.053142 9.129969 36.694150 -3.577850 9.334870 -1.365100 1.172972 -21.437466 4.547781 -6.248822 -22.251994 -0.253461 -14.256804 -44.056701 6.307185 -3.787577 3.196728 0.311940 0.353890 -0.105880 0.106840 -2.674761 21.557552 14.217921 19.206959 0.899767 -1.164880 -7.845460 1.436926 -0.031161 2.595532 -1.139430 -0.255620 0.236660 0.258140 -0.007170 
-9.857360 17.117370 -0.944460 -12.162678 11.111090 -5.937278 -15.125601 12.875308 3.501378 21.628730 -0.952402 -13.037635 -3.302075 3.643274 -3.237650 -0.222494 4.693440 3.084025 -0.076720 -0.220650 -0.082000 18.301864 -9.968581 2.560612 -24.216538 0.779875 -16.347136 19.637448 -21.529387 44.502063 -1.288797 -9.606105 0.933059 -0.107240 0.597110 0.304540 -3.833125 -3.275773 -8.130913 23.048612 -2.774172 17.545318 0.958086 -0.904403 13.199319 0.313283 -3.751604 -15.133248 -11.565470 8.751821 36.878470 -3.748000 9.354780 -1.714290 1.583593 -21.102558 3.867606 -3.136610 -22.426464 -0.709062 -12.594811 -45.374257 6.174864 -3.777330 3.222982 0.319580 0.353850 -0.096790 0.119780 -2.118508 20.865358 14.003892 19.590867 0.420038 -1.477194 -8.784871 1.916020 -0.077824 2.576052 -1.159530 -0.262080 0.251890 0.243180 -0.007880 
-9.726470 17.174100 -0.930590 -12.900833 11.932642 -6.422624 -15.142056 12.674407 3.306894 21.710108 -0.946058 -12.686238 -3.556646 3.743843 -2.703957 -0.228393 4.708562 3.073688 -0.071190 -0.208450 -0.084270 18.354723 -9.530304 3.085342 -26.237967 1.123516 -18.624633 24.713462 -27.556241 49.809177 -1.753247 -11.216863 0.473626 -0.097560 0.596760 0.308160 -3.858208 -3.418172 -8.302900 23.599000 -3.019189 18.071624 1.755926 -1.156811 12.641751 -0.197468 -3.505759 -14.679697 -11.085046 8.273090 37.019087 -3.685040 9.091420 -1.914110 2.195330 -20.703191 3.274626 -0.906078 -22.652513 -1.106936 -11.043653 -46.731493 5.926445 -3.783755 3.261566 0.311200 0.359340 -0.099330 0.116510 -1.760924 20.147173 13.715534 19.842080 0.319028 -1.653763 -9.333904 1.995034 -0.109286 2.565041 -1.176028 -0.256030 0.251830 0.248100 -0.007630 
-9.604880 17.215220 -0.909850 -14.071198 12.400222 -6.466962 -15.131352 12.382483 3.128181 22.219105 -0.991817 -12.728079 -3.748993 3.834555 -2.273874 -0.264192 4.751573 3.053344 -0.062360 -0.202480 -0.078630 18.443102 -9.082966 3.628241 -27.812266 1.445137 -21.167661 30.713247 -34.238113 53.510962 -2.188225 -12.542443 0.138613 -0.079020 0.605670 0.304250 -3.962026 -3.435250 -8.448348 24.898731 -3.412132 17.977494 2.111903 -1.424854 11.794819 -0.668405 -3.450879 -14.016139 -10.886104 8.089983 36.957903 -3.597570 8.952770 -2.327420 2.868294 -19.673600 2.687773 0.439098 -23.033876 -1.178385 -9.397519 -48.154675 5.529389 -3.798089 3.269432 0.321130 0.364430 -0.107350 0.115400 -1.553949 18.901192 13.046918 20.015211 0.892603 -1.752732 -9.654292 2.418787 -0.177386 2.538830 -1.179164 -0.273060 0.270010 0.256070 -0.017350 
-9.487560 17.247410 -0.893940 -15.333541 12.699704 -6.630097 -15.119025 12.134530 2.974078 22.802319 -1.021922 -12.756101 -3.800717 3.928579 -1.828480 -0.282528 4.797958 3.022372 -0.063450 -0.201110 -0.092840 18.518325 -8.704616 4.096661 -29.203372 1.558155 -23.307932 37.164327 -41.017357 55.564032 -2.522789 -13.425725 -0.056399 -0.069560 0.617110 0.316000 -4.053162 -3.454888 -8.561575 26.429001 -3.865782 18.031507 2.300812 -1.680712 11.172383 -1.063432 -3.489114 -13.558177 -10.904772 7.915550 36.763251 -3.368100 8.628510 -2.616010 3.792077 -18.785475 2.264786 1.580201 -23.199894 -1.313346 -7.565005 -49.168031 4.905872 -3.817630 3.294250 0.316020 0.374190 -0.114160 0.110650 -1.724250 17.864122 12.548053 20.121675 1.107236 -1.862002 -9.518903 3.414895 -0.258454 2.502912 -1.173777 -0.271380 0.274380 0.276700 -0.015720 
-9.379170 17.281520 -0.877700 -16.200946 12.615345 -7.083283 -15.120277 11.991144 2.832458 23.066372 -1.032922 -12.151513 -3.767997 4.005171 -1.475931 -0.309285 4.849192 2.991726 -0.033520 -0.173710 -0.072580 18.559282 -8.405927 4.481777 -30.511955 1.633213 -25.135406 43.639968 -47.262353 56.345888 -2.747829 -13.846943 -0.134327 -0.044330 0.604650 0.328510 -4.082824 -3.536618 -8.656667 27.328835 -4.064411 18.694268 2.630211 -1.696816 10.685905 -1.464002 -3.450302 -13.045784 -10.803875 7.782307 36.607661 -3.092820 8.411730 -3.633560 4.519930 -17.919871 1.760130 2.815525 -23.507155 -1.549838 -5.478516 -50.089005 4.097404 -3.821168 3.317918 0.331630 0.367290 -0.104210 0.105020 -1.705535 16.885356 12.046536 20.312494 1.196359 -2.101135 -10.041948 4.408217 -0.358366 2.463975 -1.183802 -0.268060 0.276760 0.281280 -0.026690 
